<?xml version="1.0" encoding="utf-8"?>
<!-- Generator: Adobe Illustrator 25.4.1, SVG Export Plug-In . SVG Version: 6.00 Build 0)  -->
<svg version="1.1" id="Layer_1" xmlns="http://www.w3.org/2000/svg" xmlns:xlink="http://www.w3.org/1999/xlink" x="0px" y="0px"
	 viewBox="0 0 2000 2000" style="enable-background:new 0 0 2000 2000;" xml:space="preserve">
<style type="text/css">
	.st0{fill:url(#SVGID_1_);}
	.st1{fill:url(#SVGID_00000145036030376983810120000017979060565844648638_);}
	.st2{fill:#122D66;}
</style>
<g>
	<linearGradient id="SVGID_1_" gradientUnits="userSpaceOnUse" x1="1115.2756" y1="548.8961" x2="875.1879" y2="943.4793">
		<stop  offset="0" style="stop-color:#183D8A"/>
		<stop  offset="0.214" style="stop-color:#1B408C"/>
		<stop  offset="0.386" style="stop-color:#254992"/>
		<stop  offset="0.5433" style="stop-color:#36579C"/>
		<stop  offset="0.6918" style="stop-color:#4E6CAB"/>
		<stop  offset="0.8343" style="stop-color:#6D87BE"/>
		<stop  offset="0.9704" style="stop-color:#92A8D4"/>
		<stop  offset="1" style="stop-color:#9BB0DA"/>
	</linearGradient>
	<path class="st0" d="M918.12,636.44c-48.09,0-93.22,19.28-126.55,54.19c-31.3,32.78-48.31,69.43-48.31,114.76l-2.41,56.36l0,0
		c15.81,0,28.63-12.82,28.63-28.63l2.41-41.78l0,0c6.48-74.69,69.9-126.26,146.24-126.26h309.19v9.77
		c0,80.76-67.88,139.01-148.64,139.01h-184c-15.81,0-28.63,12.82-28.63,28.63v0h212.63c46.71,0,90.62-18.19,123.65-51.22
		c33.03-33.03,56.03-69.71,56.03-116.42l0.8-38.4H918.12z"/>
	
		<linearGradient id="SVGID_00000150063989410224228060000015321346252311861147_" gradientUnits="userSpaceOnUse" x1="1124.8121" y1="816.5207" x2="884.7244" y2="1211.104">
		<stop  offset="0" style="stop-color:#183D8A"/>
		<stop  offset="0.214" style="stop-color:#1B408C"/>
		<stop  offset="0.386" style="stop-color:#254992"/>
		<stop  offset="0.5433" style="stop-color:#36579C"/>
		<stop  offset="0.6918" style="stop-color:#4E6CAB"/>
		<stop  offset="0.8343" style="stop-color:#6D87BE"/>
		<stop  offset="0.9704" style="stop-color:#92A8D4"/>
		<stop  offset="1" style="stop-color:#9BB0DA"/>
	</linearGradient>
	<path style="fill:url(#SVGID_00000150063989410224228060000015321346252311861147_);" d="M1081.88,1123.56
		c48.09,0,93.22-19.28,126.55-54.19c31.3-32.78,48.31-69.43,48.31-114.76l2.41-56.36h0c-15.81,0-28.63,12.82-28.63,28.63
		l-2.41,41.78l0,0c-6.48,74.69-69.9,126.26-146.24,126.26H772.69v-9.77c0-80.76,67.88-139.01,148.64-139.01h184
		c15.81,0,28.63-12.82,28.63-28.63v0H921.33c-46.71,0-90.62,18.19-123.65,51.22c-33.03,33.03-56.03,69.71-56.03,116.42l-0.8,38.4
		H1081.88z"/>
</g>
<g>
	<g>
		<path class="st2" d="M707.28,1265.18c0,5.63-1.45,10.69-4.35,15.17c-2.9,4.49-7.14,8-12.73,10.54s-12.21,3.81-19.87,3.81
			c-9.18,0-16.76-1.73-22.72-5.21c-4.23-2.5-7.67-5.83-10.31-10c-2.65-4.17-3.97-8.22-3.97-12.16c0-2.29,0.79-4.24,2.38-5.87
			s3.61-2.44,6.06-2.44c1.99,0,3.67,0.63,5.05,1.9c1.37,1.27,2.55,3.15,3.52,5.65c1.18,2.96,2.46,5.44,3.84,7.43
			c1.37,1.99,3.31,3.63,5.81,4.92c2.5,1.29,5.78,1.94,9.84,1.94c5.59,0,10.12-1.3,13.62-3.9c3.49-2.6,5.24-5.85,5.24-9.74
			c0-3.09-0.94-5.6-2.82-7.52c-1.88-1.93-4.32-3.4-7.3-4.41s-6.97-2.09-11.97-3.24c-6.69-1.57-12.28-3.4-16.79-5.49
			c-4.51-2.09-8.08-4.95-10.73-8.57c-2.65-3.62-3.97-8.11-3.97-13.49c0-5.12,1.4-9.67,4.19-13.65c2.79-3.98,6.83-7.04,12.12-9.17
			c5.29-2.14,11.51-3.21,18.66-3.21c5.71,0,10.65,0.71,14.82,2.13c4.17,1.42,7.63,3.3,10.38,5.65c2.75,2.35,4.76,4.81,6.03,7.39
			c1.27,2.58,1.9,5.1,1.9,7.55c0,2.24-0.79,4.26-2.38,6.06c-1.59,1.8-3.57,2.7-5.94,2.7c-2.16,0-3.8-0.54-4.92-1.62
			c-1.12-1.08-2.34-2.85-3.65-5.3c-1.69-3.51-3.72-6.25-6.09-8.22c-2.37-1.97-6.18-2.95-11.43-2.95c-4.87,0-8.79,1.07-11.77,3.21
			c-2.98,2.14-4.48,4.71-4.48,7.71c0,1.86,0.51,3.47,1.52,4.82c1.02,1.35,2.41,2.52,4.19,3.49c1.78,0.97,3.58,1.74,5.4,2.29
			c1.82,0.55,4.82,1.35,9.01,2.41c5.25,1.23,10,2.58,14.25,4.06c4.25,1.48,7.87,3.28,10.85,5.4c2.98,2.12,5.31,4.79,6.98,8.03
			C706.44,1256.52,707.28,1260.49,707.28,1265.18z"/>
		<path class="st2" d="M764.22,1198.47c9.65,0,17.93,1.96,24.85,5.87s12.16,9.48,15.71,16.69c3.55,7.22,5.33,15.69,5.33,25.42
			c0,7.19-0.97,13.73-2.92,19.61c-1.95,5.88-4.87,10.98-8.76,15.3c-3.89,4.32-8.68,7.62-14.35,9.9c-5.67,2.29-12.17,3.43-19.49,3.43
			c-7.28,0-13.8-1.17-19.55-3.52c-5.76-2.35-10.56-5.66-14.41-9.93c-3.85-4.27-6.76-9.42-8.73-15.42
			c-1.97-6.01-2.95-12.5-2.95-19.49c0-7.15,1.03-13.71,3.08-19.68c2.05-5.97,5.02-11.04,8.92-15.23c3.89-4.19,8.63-7.4,14.22-9.62
			C750.76,1199.58,757.11,1198.47,764.22,1198.47z M791,1246.33c0-6.81-1.1-12.72-3.3-17.71c-2.2-4.99-5.34-8.77-9.43-11.33
			c-4.08-2.56-8.77-3.84-14.06-3.84c-3.77,0-7.25,0.71-10.44,2.13c-3.2,1.42-5.95,3.48-8.25,6.19c-2.31,2.71-4.13,6.17-5.46,10.38
			s-2,8.94-2,14.19c0,5.29,0.67,10.07,2,14.35c1.33,4.27,3.22,7.82,5.65,10.63c2.43,2.82,5.23,4.92,8.38,6.32
			c3.15,1.4,6.61,2.09,10.38,2.09c4.82,0,9.26-1.21,13.3-3.62c4.04-2.41,7.26-6.14,9.65-11.17
			C789.81,1259.89,791,1253.69,791,1246.33z"/>
		<path class="st2" d="M881.84,1214.59H844.7v23.8h31.04c2.88,0,5.02,0.65,6.44,1.94c1.42,1.29,2.13,3.02,2.13,5.17
			s-0.72,3.87-2.16,5.14c-1.44,1.27-3.58,1.9-6.41,1.9H844.7v30.66c0,3.89-0.88,6.78-2.63,8.66c-1.76,1.88-4.01,2.83-6.76,2.83
			c-2.79,0-5.07-0.95-6.82-2.86c-1.76-1.9-2.63-4.78-2.63-8.63v-71.6c0-2.71,0.4-4.92,1.21-6.63c0.8-1.71,2.06-2.96,3.78-3.75
			c1.71-0.78,3.9-1.17,6.57-1.17h44.43c3,0,5.24,0.67,6.7,2c1.46,1.33,2.19,3.08,2.19,5.24c0,2.2-0.73,3.97-2.19,5.3
			C887.08,1213.93,884.84,1214.59,881.84,1214.59z"/>
		<path class="st2" d="M965.18,1215.61h-20.57v67.6c0,3.89-0.87,6.78-2.6,8.66c-1.74,1.88-3.98,2.83-6.73,2.83
			c-2.79,0-5.07-0.95-6.82-2.86c-1.76-1.9-2.63-4.78-2.63-8.63v-67.6h-20.57c-3.22,0-5.61-0.71-7.17-2.13
			c-1.57-1.42-2.35-3.29-2.35-5.62c0-2.41,0.81-4.32,2.44-5.71c1.63-1.4,3.99-2.09,7.08-2.09h59.92c3.26,0,5.68,0.72,7.27,2.16
			c1.59,1.44,2.38,3.32,2.38,5.65c0,2.33-0.8,4.2-2.41,5.62C970.81,1214.9,968.4,1215.61,965.18,1215.61z"/>
		<path class="st2" d="M1051.89,1278.45l-15.04-55.8l-15.23,55.8c-1.19,4.23-2.13,7.27-2.83,9.11c-0.7,1.84-1.92,3.49-3.65,4.95
			c-1.74,1.46-4.04,2.19-6.92,2.19c-2.33,0-4.24-0.43-5.74-1.3c-1.5-0.87-2.72-2.09-3.65-3.68c-0.93-1.59-1.69-3.47-2.29-5.65
			c-0.59-2.18-1.12-4.2-1.59-6.06l-15.49-62.65c-0.93-3.64-1.4-6.41-1.4-8.32c0-2.41,0.85-4.44,2.54-6.09
			c1.69-1.65,3.79-2.48,6.28-2.48c3.43,0,5.73,1.1,6.92,3.3c1.18,2.2,2.22,5.4,3.11,9.58l12.19,54.34l13.65-50.84
			c1.02-3.89,1.92-6.86,2.73-8.89c0.8-2.03,2.12-3.79,3.94-5.27c1.82-1.48,4.29-2.22,7.43-2.22c3.17,0,5.64,0.77,7.4,2.32
			c1.75,1.54,2.97,3.23,3.65,5.05c0.68,1.82,1.59,4.82,2.73,9.01l13.77,50.84l12.19-54.34c0.59-2.83,1.15-5.06,1.68-6.67
			c0.53-1.61,1.44-3.05,2.73-4.32s3.16-1.9,5.62-1.9c2.45,0,4.54,0.82,6.25,2.44c1.71,1.63,2.57,3.67,2.57,6.12
			c0,1.74-0.47,4.51-1.4,8.32l-15.49,62.65c-1.06,4.23-1.94,7.33-2.63,9.3c-0.7,1.97-1.88,3.69-3.55,5.17s-4.03,2.22-7.08,2.22
			c-2.88,0-5.18-0.72-6.92-2.16c-1.74-1.44-2.94-3.06-3.62-4.86C1054.07,1285.89,1053.12,1282.81,1051.89,1278.45z"/>
		<path class="st2" d="M1167.48,1282.58l-4.44-11.68h-37.83l-4.44,11.93c-1.74,4.66-3.22,7.8-4.44,9.43
			c-1.23,1.63-3.24,2.44-6.03,2.44c-2.37,0-4.46-0.87-6.28-2.6c-1.82-1.73-2.73-3.7-2.73-5.9c0-1.27,0.21-2.58,0.63-3.94
			c0.42-1.35,1.12-3.24,2.09-5.65l23.8-60.43c0.68-1.73,1.49-3.82,2.44-6.25c0.95-2.43,1.97-4.45,3.05-6.06
			c1.08-1.61,2.5-2.91,4.25-3.9c1.76-0.99,3.92-1.49,6.51-1.49c2.62,0,4.81,0.5,6.57,1.49c1.76,1,3.17,2.28,4.25,3.84
			c1.08,1.57,1.99,3.25,2.73,5.05c0.74,1.8,1.68,4.2,2.83,7.21l24.31,60.05c1.9,4.57,2.86,7.89,2.86,9.97c0,2.16-0.9,4.14-2.7,5.93
			c-1.8,1.8-3.97,2.7-6.51,2.7c-1.48,0-2.75-0.26-3.81-0.79c-1.06-0.53-1.95-1.25-2.67-2.16c-0.72-0.91-1.49-2.31-2.32-4.19
			C1168.78,1285.68,1168.07,1284.02,1167.48,1282.58z M1130.16,1256.74h27.8l-14.03-38.4L1130.16,1256.74z"/>
		<path class="st2" d="M1226.77,1253.31h-6.6v29.9c0,3.94-0.87,6.83-2.6,8.7c-1.74,1.86-4,2.79-6.79,2.79c-3,0-5.33-0.97-6.98-2.92
			s-2.48-4.8-2.48-8.57v-71.6c0-4.06,0.91-7,2.73-8.82c1.82-1.82,4.76-2.73,8.82-2.73h30.66c4.23,0,7.85,0.18,10.85,0.54
			c3,0.36,5.71,1.09,8.12,2.19c2.92,1.23,5.5,2.98,7.74,5.27c2.24,2.29,3.95,4.94,5.11,7.97s1.75,6.23,1.75,9.62
			c0,6.94-1.96,12.48-5.87,16.63c-3.92,4.15-9.85,7.09-17.81,8.82c3.34,1.78,6.54,4.4,9.58,7.87c3.05,3.47,5.77,7.16,8.16,11.08
			c2.39,3.92,4.25,7.45,5.59,10.6c1.33,3.15,2,5.32,2,6.51c0,1.23-0.39,2.44-1.17,3.65c-0.78,1.21-1.85,2.16-3.21,2.86
			c-1.35,0.7-2.92,1.05-4.7,1.05c-2.12,0-3.89-0.5-5.33-1.49c-1.44-0.99-2.68-2.25-3.71-3.78s-2.44-3.77-4.22-6.73l-7.55-12.57
			c-2.71-4.61-5.13-8.12-7.27-10.54s-4.31-4.06-6.51-4.95C1232.88,1253.76,1230.11,1253.31,1226.77,1253.31z M1237.56,1214.21
			h-17.39v25.58h16.88c4.53,0,8.34-0.39,11.43-1.17c3.09-0.78,5.45-2.12,7.08-4c1.63-1.88,2.44-4.47,2.44-7.78
			c0-2.58-0.66-4.86-1.97-6.82c-1.31-1.97-3.13-3.44-5.46-4.41C1248.37,1214.68,1244.04,1214.21,1237.56,1214.21z"/>
		<path class="st2" d="M1356.26,1214.59h-42.47v22.85h39.1c2.88,0,5.02,0.65,6.44,1.94s2.13,2.99,2.13,5.11
			c0,2.12-0.7,3.84-2.09,5.17c-1.4,1.33-3.55,2-6.47,2h-39.1v26.47h43.93c2.96,0,5.19,0.69,6.7,2.06c1.5,1.38,2.25,3.21,2.25,5.49
			c0,2.2-0.75,3.99-2.25,5.36s-3.73,2.06-6.7,2.06h-51.23c-4.11,0-7.06-0.91-8.86-2.73c-1.8-1.82-2.7-4.76-2.7-8.82v-69.95
			c0-2.71,0.4-4.92,1.21-6.63c0.8-1.71,2.06-2.96,3.78-3.75c1.71-0.78,3.9-1.17,6.57-1.17h49.77c3,0,5.24,0.67,6.7,2
			c1.46,1.33,2.19,3.08,2.19,5.24c0,2.2-0.73,3.97-2.19,5.3C1361.5,1213.93,1359.27,1214.59,1356.26,1214.59z"/>
	</g>
	<g>
		<path class="st2" d="M677,1356.33c0,3.27-0.84,6.21-2.53,8.81c-1.68,2.61-4.15,4.65-7.39,6.12s-7.09,2.21-11.54,2.21
			c-5.33,0-9.73-1.01-13.2-3.02c-2.46-1.45-4.46-3.38-5.99-5.81c-1.54-2.42-2.3-4.77-2.3-7.06c0-1.33,0.46-2.46,1.38-3.41
			c0.92-0.95,2.09-1.42,3.52-1.42c1.15,0,2.13,0.37,2.93,1.11c0.8,0.74,1.48,1.83,2.05,3.28c0.69,1.72,1.43,3.16,2.23,4.31
			c0.8,1.16,1.92,2.11,3.37,2.86c1.45,0.75,3.35,1.12,5.71,1.12c3.24,0,5.88-0.76,7.91-2.27c2.03-1.51,3.04-3.4,3.04-5.66
			c0-1.79-0.55-3.25-1.64-4.37c-1.09-1.12-2.51-1.97-4.24-2.56c-1.73-0.59-4.05-1.22-6.95-1.88c-3.88-0.91-7.13-1.97-9.75-3.19
			c-2.62-1.22-4.69-2.88-6.23-4.98c-1.54-2.1-2.3-4.71-2.3-7.83c0-2.97,0.81-5.62,2.43-7.93c1.62-2.31,3.97-4.09,7.04-5.33
			c3.07-1.24,6.68-1.86,10.84-1.86c3.32,0,6.19,0.41,8.61,1.23c2.42,0.82,4.43,1.92,6.03,3.28c1.6,1.36,2.76,2.8,3.5,4.29
			s1.11,2.96,1.11,4.39c0,1.3-0.46,2.48-1.38,3.52c-0.92,1.04-2.07,1.57-3.45,1.57c-1.25,0-2.21-0.31-2.86-0.94
			c-0.65-0.63-1.36-1.65-2.12-3.08c-0.98-2.04-2.16-3.63-3.54-4.77c-1.38-1.14-3.59-1.71-6.64-1.71c-2.83,0-5.11,0.62-6.84,1.86
			c-1.73,1.24-2.6,2.73-2.6,4.48c0,1.08,0.29,2.02,0.88,2.8c0.59,0.79,1.4,1.46,2.43,2.03c1.03,0.57,2.08,1.01,3.13,1.33
			c1.06,0.32,2.8,0.79,5.24,1.4c3.05,0.71,5.81,1.5,8.28,2.36c2.47,0.86,4.57,1.9,6.3,3.13c1.73,1.23,3.08,2.78,4.06,4.66
			C676.51,1351.3,677,1353.61,677,1356.33z"/>
		<path class="st2" d="M737,1326.95h-24.66v13.27h22.71c1.67,0,2.92,0.38,3.74,1.12c0.82,0.75,1.23,1.74,1.23,2.97
			c0,1.23-0.41,2.23-1.22,3c-0.81,0.77-2.06,1.16-3.76,1.16h-22.71v15.37h25.51c1.72,0,3.02,0.4,3.89,1.2
			c0.87,0.8,1.31,1.86,1.31,3.19c0,1.28-0.44,2.32-1.31,3.12c-0.87,0.8-2.17,1.2-3.89,1.2H708.1c-2.38,0-4.1-0.53-5.14-1.58
			c-1.04-1.06-1.57-2.76-1.57-5.12v-40.63c0-1.57,0.23-2.86,0.7-3.85s1.2-1.72,2.19-2.17c1-0.46,2.27-0.68,3.82-0.68H737
			c1.74,0,3.04,0.39,3.89,1.16c0.85,0.77,1.27,1.79,1.27,3.04c0,1.28-0.42,2.3-1.27,3.08C740.04,1326.57,738.74,1326.95,737,1326.95
			z"/>
		<path class="st2" d="M781.55,1349.44h-3.83v17.36c0,2.29-0.5,3.97-1.51,5.05c-1.01,1.08-2.32,1.62-3.94,1.62
			c-1.75,0-3.1-0.57-4.05-1.7c-0.96-1.13-1.44-2.79-1.44-4.98v-41.58c0-2.36,0.53-4.07,1.59-5.12c1.06-1.06,2.76-1.59,5.12-1.59
			h17.81c2.46,0,4.56,0.11,6.3,0.31c1.74,0.21,3.32,0.63,4.72,1.27c1.7,0.71,3.19,1.73,4.5,3.06c1.3,1.33,2.29,2.87,2.97,4.63
			c0.68,1.76,1.01,3.62,1.01,5.58c0,4.03-1.14,7.25-3.41,9.66c-2.27,2.41-5.72,4.12-10.34,5.12c1.94,1.03,3.8,2.56,5.57,4.57
			c1.77,2.02,3.35,4.16,4.74,6.43c1.39,2.27,2.47,4.33,3.24,6.16c0.77,1.83,1.16,3.09,1.16,3.78c0,0.71-0.23,1.42-0.68,2.12
			c-0.46,0.7-1.08,1.25-1.86,1.66c-0.79,0.41-1.7,0.61-2.73,0.61c-1.23,0-2.26-0.29-3.1-0.87s-1.55-1.31-2.16-2.19
			c-0.6-0.88-1.42-2.19-2.45-3.91l-4.39-7.3c-1.57-2.68-2.98-4.72-4.22-6.12c-1.24-1.4-2.5-2.36-3.78-2.88
			C785.1,1349.7,783.5,1349.44,781.55,1349.44z M787.82,1326.73h-10.1v14.86h9.81c2.63,0,4.84-0.23,6.64-0.68
			c1.79-0.46,3.16-1.23,4.11-2.32c0.95-1.09,1.42-2.6,1.42-4.52c0-1.5-0.38-2.82-1.14-3.96c-0.76-1.14-1.82-2-3.17-2.56
			C794.1,1327,791.58,1326.73,787.82,1326.73z"/>
		<path class="st2" d="M842.37,1324.78l12.24,36.24l12.28-36.5c0.64-1.92,1.12-3.25,1.44-4c0.32-0.75,0.85-1.42,1.58-2.03
			s1.74-0.9,3.02-0.9c0.93,0,1.8,0.23,2.6,0.7c0.8,0.47,1.42,1.09,1.88,1.86c0.45,0.77,0.68,1.55,0.68,2.34
			c0,0.54-0.07,1.12-0.22,1.75c-0.15,0.63-0.33,1.24-0.55,1.84c-0.22,0.6-0.44,1.22-0.66,1.86l-13.09,35.32
			c-0.47,1.35-0.93,2.64-1.4,3.85c-0.47,1.22-1.01,2.29-1.62,3.21c-0.61,0.92-1.43,1.68-2.45,2.27c-1.02,0.59-2.27,0.88-3.74,0.88
			s-2.72-0.29-3.74-0.87c-1.02-0.58-1.84-1.34-2.47-2.29c-0.63-0.95-1.17-2.02-1.64-3.23c-0.47-1.2-0.93-2.48-1.4-3.83l-12.87-35.02
			c-0.22-0.64-0.45-1.26-0.68-1.88c-0.23-0.61-0.43-1.28-0.59-1.99c-0.16-0.71-0.24-1.31-0.24-1.81c0-1.25,0.5-2.4,1.51-3.43
			c1.01-1.03,2.27-1.55,3.8-1.55c1.87,0,3.19,0.57,3.96,1.71C840.76,1320.45,841.56,1322.27,842.37,1324.78z"/>
		<path class="st2" d="M901.85,1366.8v-42.58c0-2.21,0.5-3.87,1.51-4.98c1.01-1.11,2.31-1.66,3.91-1.66c1.65,0,2.98,0.55,4,1.64
			c1.02,1.09,1.53,2.76,1.53,5v42.58c0,2.24-0.51,3.91-1.53,5.01c-1.02,1.11-2.35,1.66-4,1.66c-1.57,0-2.87-0.56-3.89-1.68
			C902.36,1370.68,901.85,1369.02,901.85,1366.8z"/>
		<path class="st2" d="M986.19,1355.49c0,1.72-0.42,3.58-1.27,5.58c-0.85,2-2.18,3.97-4,5.9c-1.82,1.93-4.14,3.5-6.97,4.7
			c-2.83,1.2-6.12,1.81-9.88,1.81c-2.85,0-5.44-0.27-7.78-0.81c-2.33-0.54-4.45-1.38-6.36-2.53c-1.91-1.14-3.66-2.65-5.25-4.52
			c-1.43-1.7-2.64-3.59-3.65-5.7c-1.01-2.1-1.76-4.34-2.27-6.73c-0.5-2.38-0.76-4.92-0.76-7.59c0-4.35,0.63-8.25,1.9-11.69
			c1.27-3.44,3.08-6.38,5.44-8.83s5.12-4.31,8.29-5.58c3.17-1.28,6.55-1.92,10.14-1.92c4.37,0,8.27,0.87,11.69,2.62
			c3.42,1.75,6.03,3.9,7.85,6.47c1.82,2.57,2.73,5,2.73,7.28c0,1.25-0.44,2.36-1.33,3.32c-0.88,0.96-1.95,1.44-3.21,1.44
			c-1.4,0-2.45-0.33-3.15-1c-0.7-0.66-1.48-1.81-2.34-3.43c-1.43-2.68-3.1-4.68-5.03-6.01c-1.93-1.33-4.31-1.99-7.13-1.99
			c-4.5,0-8.08,1.71-10.75,5.12s-4,8.27-4,14.56c0,4.2,0.59,7.7,1.77,10.49c1.18,2.79,2.85,4.87,5.01,6.25s4.69,2.06,7.59,2.06
			c3.15,0,5.81-0.78,7.98-2.34c2.17-1.56,3.82-3.85,4.92-6.88c0.47-1.42,1.04-2.59,1.73-3.48c0.69-0.9,1.79-1.35,3.32-1.35
			c1.3,0,2.42,0.46,3.35,1.36S986.19,1354.14,986.19,1355.49z"/>
		<path class="st2" d="M1046.74,1326.95h-24.66v13.27h22.71c1.67,0,2.92,0.38,3.74,1.12s1.24,1.74,1.24,2.97
			c0,1.23-0.41,2.23-1.22,3c-0.81,0.77-2.06,1.16-3.76,1.16h-22.71v15.37h25.51c1.72,0,3.02,0.4,3.89,1.2s1.31,1.86,1.31,3.19
			c0,1.28-0.44,2.32-1.31,3.12c-0.87,0.8-2.17,1.2-3.89,1.2h-29.75c-2.38,0-4.1-0.53-5.14-1.58s-1.57-2.76-1.57-5.12v-40.63
			c0-1.57,0.23-2.86,0.7-3.85s1.2-1.72,2.19-2.17c1-0.46,2.27-0.68,3.82-0.68h28.9c1.75,0,3.04,0.39,3.89,1.16
			c0.85,0.77,1.27,1.79,1.27,3.04c0,1.28-0.42,2.3-1.27,3.08S1048.48,1326.95,1046.74,1326.95z"/>
		<path class="st2" d="M1117.65,1356.33c0,3.27-0.84,6.21-2.53,8.81c-1.68,2.61-4.15,4.65-7.39,6.12s-7.09,2.21-11.54,2.21
			c-5.33,0-9.73-1.01-13.2-3.02c-2.46-1.45-4.45-3.38-5.99-5.81s-2.3-4.77-2.3-7.06c0-1.33,0.46-2.46,1.38-3.41
			c0.92-0.95,2.1-1.42,3.52-1.42c1.15,0,2.13,0.37,2.93,1.11c0.8,0.74,1.48,1.83,2.05,3.28c0.69,1.72,1.43,3.16,2.23,4.31
			c0.8,1.16,1.92,2.11,3.37,2.86c1.45,0.75,3.35,1.12,5.71,1.12c3.24,0,5.88-0.76,7.91-2.27c2.03-1.51,3.04-3.4,3.04-5.66
			c0-1.79-0.55-3.25-1.64-4.37c-1.09-1.12-2.51-1.97-4.24-2.56c-1.73-0.59-4.05-1.22-6.95-1.88c-3.88-0.91-7.13-1.97-9.75-3.19
			c-2.62-1.22-4.69-2.88-6.23-4.98s-2.3-4.71-2.3-7.83c0-2.97,0.81-5.62,2.43-7.93c1.62-2.31,3.97-4.09,7.04-5.33
			c3.07-1.24,6.68-1.86,10.84-1.86c3.32,0,6.19,0.41,8.61,1.23c2.42,0.82,4.43,1.92,6.03,3.28c1.6,1.36,2.76,2.8,3.5,4.29
			s1.11,2.96,1.11,4.39c0,1.3-0.46,2.48-1.38,3.52c-0.92,1.04-2.07,1.57-3.45,1.57c-1.25,0-2.21-0.31-2.86-0.94
			c-0.65-0.63-1.36-1.65-2.12-3.08c-0.98-2.04-2.16-3.63-3.54-4.77c-1.38-1.14-3.59-1.71-6.64-1.71c-2.83,0-5.11,0.62-6.84,1.86
			c-1.73,1.24-2.6,2.73-2.6,4.48c0,1.08,0.29,2.02,0.88,2.8c0.59,0.79,1.4,1.46,2.43,2.03c1.03,0.57,2.08,1.01,3.13,1.33
			c1.06,0.32,2.8,0.79,5.24,1.4c3.05,0.71,5.81,1.5,8.28,2.36c2.47,0.86,4.57,1.9,6.3,3.13c1.73,1.23,3.08,2.78,4.05,4.66
			S1117.65,1353.61,1117.65,1356.33z"/>
		<path class="st2" d="M1187.04,1324.23v15.48h23.63v-15.48c0-2.21,0.5-3.87,1.49-4.98c1-1.11,2.3-1.66,3.93-1.66
			c1.65,0,2.98,0.55,4,1.64s1.53,2.76,1.53,5v42.58c0,2.24-0.52,3.91-1.55,5.01s-2.36,1.66-3.98,1.66c-1.65,0-2.96-0.56-3.94-1.68
			c-0.98-1.12-1.47-2.78-1.47-5v-18.17h-23.63v18.17c0,2.24-0.52,3.91-1.55,5.01s-2.36,1.66-3.98,1.66c-1.65,0-2.96-0.56-3.94-1.68
			c-0.98-1.12-1.47-2.78-1.47-5v-42.58c0-2.21,0.48-3.87,1.46-4.98c0.97-1.11,2.29-1.66,3.96-1.66c1.65,0,2.98,0.55,4,1.64
			C1186.53,1320.32,1187.04,1321.99,1187.04,1324.23z"/>
		<path class="st2" d="M1248.56,1350.22v-25.99c0-2.21,0.5-3.87,1.49-4.98c1-1.11,2.3-1.66,3.93-1.66c1.7,0,3.04,0.55,4.04,1.66
			c1,1.11,1.49,2.76,1.49,4.98v26.58c0,3.02,0.34,5.55,1.01,7.58s1.87,3.6,3.59,4.72c1.72,1.12,4.13,1.68,7.23,1.68
			c4.28,0,7.3-1.14,9.07-3.41s2.65-5.72,2.65-10.34v-26.8c0-2.24,0.49-3.9,1.47-5c0.98-1.09,2.3-1.64,3.94-1.64
			c1.65,0,2.98,0.55,4,1.64c1.02,1.09,1.53,2.76,1.53,5v25.99c0,4.23-0.41,7.75-1.23,10.58c-0.82,2.83-2.38,5.31-4.66,7.45
			c-1.97,1.82-4.25,3.15-6.86,3.98c-2.61,0.84-5.65,1.25-9.14,1.25c-4.15,0-7.73-0.45-10.73-1.35c-3-0.9-5.44-2.29-7.34-4.17
			s-3.28-4.29-4.17-7.23C1249,1357.8,1248.56,1354.29,1248.56,1350.22z"/>
		<path class="st2" d="M1344.02,1372.56h-16.52c-2.38,0-4.09-0.53-5.11-1.6s-1.53-2.77-1.53-5.11v-40.63c0-2.38,0.52-4.1,1.57-5.14
			c1.04-1.04,2.73-1.57,5.07-1.57h17.51c2.58,0,4.82,0.16,6.71,0.48c1.89,0.32,3.59,0.93,5.09,1.84c1.28,0.76,2.41,1.73,3.39,2.89
			c0.98,1.17,1.73,2.46,2.25,3.87c0.52,1.41,0.77,2.91,0.77,4.48c0,5.41-2.7,9.36-8.11,11.87c7.1,2.26,10.65,6.66,10.65,13.2
			c0,3.02-0.77,5.75-2.32,8.17c-1.55,2.42-3.64,4.21-6.27,5.36c-1.65,0.69-3.54,1.17-5.68,1.46
			C1349.37,1372.41,1346.87,1372.56,1344.02,1372.56z M1331.82,1326.73v13.97h10.03c2.73,0,4.83-0.26,6.32-0.77
			c1.49-0.52,2.62-1.5,3.41-2.95c0.61-1.03,0.92-2.19,0.92-3.46c0-2.73-0.97-4.54-2.91-5.44c-1.94-0.9-4.9-1.35-8.88-1.35H1331.82z
			 M1343.21,1348.56h-11.39v15.78h11.76c7.4,0,11.1-2.67,11.1-8c0-2.73-0.96-4.71-2.88-5.94
			C1349.88,1349.17,1347.02,1348.56,1343.21,1348.56z"/>
	</g>
</g>
</svg>
